<?xml version="1.0" standalone="no"?><svg xmlns="http://www.w3.org/2000/svg" viewBox="0 0 1440 320"><path fill="#a2d9ff" fill-opacity="1" d="M0,256L24,218.7C48,181,96,107,144,80C192,53,240,75,288,106.7C336,139,384,181,432,170.7C480,160,528,96,576,80C624,64,672,96,720,106.7C768,117,816,107,864,122.7C912,139,960,181,1008,186.7C1056,192,1104,160,1152,133.3C1200,107,1248,85,1296,80C1344,75,1392,85,1416,90.7L1440,96L1440,0L1416,0C1392,0,1344,0,1296,0C1248,0,1200,0,1152,0C1104,0,1056,0,1008,0C960,0,912,0,864,0C816,0,768,0,720,0C672,0,624,0,576,0C528,0,480,0,432,0C384,0,336,0,288,0C240,0,192,0,144,0C96,0,48,0,24,0L0,0Z"></path></svg>